<?xml version="1.0" encoding="UTF-8" standalone="no"?><!DOCTYPE svg PUBLIC "-//W3C//DTD SVG 1.1//EN" "http://www.w3.org/Graphics/SVG/1.1/DTD/svg11.dtd"><svg width="100%" height="100%" viewBox="0 0 47 45" version="1.1" xmlns="http://www.w3.org/2000/svg" xmlns:xlink="http://www.w3.org/1999/xlink" xml:space="preserve" style="fill-rule:evenodd;clip-rule:evenodd;stroke-linejoin:round;stroke-miterlimit:1.41421;"><path d="M38.398,15.145l0,16.91c0,2.179 -1.765,3.945 -3.941,3.945l-16.855,0l-8,8.801l0,-8.801l-5.661,0c-2.175,0 -3.941,-1.766 -3.941,-3.941l0,-16.914c0,-2.18 1.766,-3.946 3.941,-3.946l30.516,0c2.176,0 3.941,1.766 3.941,3.946" style="fill:#95ccef;fill-rule:nonzero;"/><path d="M42.457,0l-30.516,0c-2.175,0 -3.941,1.766 -3.941,3.945l0,7.254l26.457,0c2.176,0 3.941,1.766 3.941,3.946l0,9.656l4.059,0c2.176,0 3.941,-1.766 3.941,-3.946l0,-16.91c0,-2.179 -1.765,-3.945 -3.941,-3.945" style="fill:#809fd6;fill-rule:nonzero;"/><path d="M11.199,24c0,1.324 -1.074,2.398 -2.398,2.398c-1.328,0 -2.403,-1.074 -2.403,-2.398c0,-1.324 1.075,-2.398 2.403,-2.398c1.324,0 2.398,1.074 2.398,2.398" style="fill:#fff;fill-rule:nonzero;"/><path d="M21.602,24c0,1.324 -1.075,2.398 -2.403,2.398c-1.324,0 -2.398,-1.074 -2.398,-2.398c0,-1.324 1.074,-2.398 2.398,-2.398c1.328,0 2.403,1.074 2.403,2.398" style="fill:#fff;fill-rule:nonzero;"/><path d="M32,24c0,1.324 -1.074,2.398 -2.398,2.398c-1.329,0 -2.403,-1.074 -2.403,-2.398c0,-1.324 1.074,-2.398 2.403,-2.398c1.324,0 2.398,1.074 2.398,2.398" style="fill:#fff;fill-rule:nonzero;"/></svg>