<?xml version="1.0" encoding="UTF-8" standalone="no"?><!DOCTYPE svg PUBLIC "-//W3C//DTD SVG 1.1//EN" "http://www.w3.org/Graphics/SVG/1.1/DTD/svg11.dtd"><svg width="100%" height="100%" viewBox="0 0 43 46" version="1.1" xmlns="http://www.w3.org/2000/svg" xmlns:xlink="http://www.w3.org/1999/xlink" xml:space="preserve" style="fill-rule:evenodd;clip-rule:evenodd;stroke-linejoin:round;stroke-miterlimit:1.41421;"><g id="Layer-1"><path d="M14.398,22.766c0,3.976 -3.222,7.199 -7.199,7.199c-3.976,0 -7.199,-3.223 -7.199,-7.199c0,-3.977 3.223,-7.2 7.199,-7.2c3.977,0 7.199,3.223 7.199,7.2" style="fill:#019fe6;fill-rule:nonzero;"/><path d="M42.398,38.398c0,3.977 -3.222,7.204 -7.199,7.204c-3.976,0 -7.199,-3.227 -7.199,-7.204c0,-3.976 3.223,-7.199 7.199,-7.199c3.977,0 7.199,3.223 7.199,7.199" style="fill:#019fe6;fill-rule:nonzero;"/><path d="M42.398,7.199c0,3.977 -3.222,7.199 -7.199,7.199c-3.976,0 -7.199,-3.222 -7.199,-7.199c0,-3.976 3.223,-7.199 7.199,-7.199c3.977,0 7.199,3.223 7.199,7.199" style="fill:#019fe6;fill-rule:nonzero;"/><path d="M13.613,20.289c0.141,0 0.285,-0.039 0.414,-0.117l15.125,-9.109c0.379,-0.227 0.5,-0.719 0.274,-1.098c-0.231,-0.379 -0.723,-0.5 -1.102,-0.274l-15.125,9.114c-0.379,0.226 -0.5,0.718 -0.269,1.097c0.148,0.25 0.41,0.387 0.683,0.387" style="fill:#e0e0e0;fill-rule:nonzero;"/><path d="M29.152,34.535l-15.125,-9.18c-0.375,-0.23 -0.867,-0.109 -1.097,0.27c-0.231,0.375 -0.11,0.867 0.269,1.098l15.125,9.179c0.129,0.082 0.274,0.118 0.414,0.118c0.27,0 0.532,-0.137 0.684,-0.383c0.23,-0.379 0.109,-0.871 -0.27,-1.102" style="fill:#e0e0e0;fill-rule:nonzero;"/></g></svg>