<svg id="Слой_1" data-name="Слой 1" xmlns="http://www.w3.org/2000/svg" xmlns:xlink="http://www.w3.org/1999/xlink" viewBox="0 0 275.83 68.77">
  <defs>
    <style>
      .cls-1 {
        fill: #fff;
      }

      .cls-2 {
        fill: url(#linear-gradient);
      }

      .cls-3 {
        fill: url(#linear-gradient-2);
      }

      .cls-4 {
        fill: url(#linear-gradient-3);
      }

      .cls-5 {
        fill: url(#linear-gradient-4);
      }

      .cls-13,
      .cls-6 {
        fill: none;
        stroke-miterlimit: 10;
      }

      .cls-6 {
        stroke: #e60a58;
      }

      .cls-7 {
        opacity: 0.3;
      }

      .cls-8 {
        fill: #fe9405;
      }

      .cls-9 {
        fill: url(#linear-gradient-5);
      }

      .cls-10 {
        fill: url(#linear-gradient-6);
      }

      .cls-11 {
        fill: url(#linear-gradient-7);
      }

      .cls-12 {
        fill: url(#linear-gradient-8);
      }

      .cls-13 {
        stroke: url(#linear-gradient-9);
      }

      .cls-14 {
        font-size: 9.21px;
        fill: #0d1933;
        font-family: Tahoma;
      }

      .cls-15 {
        letter-spacing: -0.01em;
        font-family: Tahoma;
      }

      .cls-16 {
        letter-spacing: 0em;
        font-family: Tahoma;
      }

      .cls-17 {
        letter-spacing: -0.01em;
        font-family: Tahoma;
      }

      .cls-18 {
        letter-spacing: -0.01em;
        font-family: Tahoma;
      }
    </style>
    <linearGradient id="linear-gradient" x1="21.49" y1="36.23" x2="263.99" y2="15.23" gradientUnits="userSpaceOnUse">
      <stop offset="0" stop-color="#e60a58" />
      <stop offset="1" stop-color="#fe9405" />
    </linearGradient>
    <linearGradient id="linear-gradient-2" x1="21.68" y1="38.36" x2="264.19" y2="17.35" xlink:href="#linear-gradient" />
    <linearGradient id="linear-gradient-3" x1="21.78" y1="39.48" x2="264.28" y2="18.48" xlink:href="#linear-gradient" />
    <linearGradient id="linear-gradient-4" x1="22.38" y1="46.3" x2="264.87" y2="25.3" xlink:href="#linear-gradient" />
    <linearGradient id="linear-gradient-5" x1="21.96" y1="41.57" x2="264.46" y2="20.58" xlink:href="#linear-gradient" />
    <linearGradient id="linear-gradient-6" x1="21.76" y1="39.36" x2="264.27" y2="18.36" xlink:href="#linear-gradient" />
    <linearGradient id="linear-gradient-7" x1="21.6" y1="37.38" x2="264.09" y2="16.38" xlink:href="#linear-gradient" />
    <linearGradient id="linear-gradient-8" x1="21.44" y1="35.66" x2="263.95" y2="14.66" xlink:href="#linear-gradient" />
    <linearGradient id="linear-gradient-9" x1="2.26" y1="34.36" x2="273.57" y2="34.36" xlink:href="#linear-gradient" />
  </defs>
  <title>Векторный смарт-объект</title>
  <rect class="cls-1" width="275.83" height="68.77" rx="9" ry="9" />
  <path class="cls-2" d="M53.18,22.79l-9.4,25L37,32.42l-6.7,15.45L20.78,22.79h4.68l4.94,13.27L37,22.3l6.41,13.76,5.2-13.27Z"
  />
  <path class="cls-3" d="M63.24,46.86H58.62l-.07-17.44-2.6,2.08-1.3-2.86,8.59-6Z" />
  <path class="cls-4" d="M82.66,46.86H65.19l11.65-13.7a5.58,5.58,0,0,0,1.63-3.35,3.38,3.38,0,0,0-1.19-2.54,3.76,3.76,0,0,0-2.62-1.11,4.14,4.14,0,0,0-3,1.12,4,4,0,0,0-1.15,3H66.23q.78-7.94,8.13-7.94a12,12,0,0,1,1.66.1A7.57,7.57,0,0,1,80.64,25a7,7,0,0,1,2,4.83,7.51,7.51,0,0,1-1.82,5l-7,8.2h8.85Z"
  />
  <rect class="cls-5" x="230.72" y="17.19" width="28.53" height="19.67" />
  <path class="cls-1" d="M241.44,33H240.3V29.94h-6V29l6-7.12h1.13v7h1.84v1.06h-1.84Zm-1.14-9.57-4.61,5.44h4.61Z" />
  <path class="cls-1" d="M245.48,33.1a.81.81,0,1,1,.59-.24A.8.8,0,0,1,245.48,33.1Z" />
  <path class="cls-1" d="M250.06,33h-1.24l5.09-10.06h-6V21.88h7.34v.88Z" />
  <rect class="cls-6" x="12.21" y="12.97" width="79.5" height="42.56" rx="4" ry="4" />
  <g class="cls-7">
    <path class="cls-8" d="M208.34,17l-3,6.8-7.4.77,5.54,5L201.9,36.8l6.44-3.73,6.44,3.73-1.56-7.28,5.54-5-7.4-.77-3-6.8Z"
    />
  </g>
  <path class="cls-9" d="M185.41,17.23l-3,6.8-7.4.77,5.54,5L179,37.05l6.44-3.73,6.44,3.73-1.56-7.28,5.54-5-7.4-.77-3-6.8Z"
  />
  <path class="cls-10" d="M162.47,17l-3,6.8-7.4.77,5.54,5L156,36.8l6.44-3.73,6.44,3.73-1.56-7.28,5.54-5-7.4-.77-3-6.8Z" />
  <path class="cls-11" d="M139.53,17l-3,6.8-7.4.77,5.54,5-1.56,7.28,6.44-3.73L146,36.8l-1.56-7.28,5.54-5-7.4-.77-3-6.8Z"
  />
  <path class="cls-12" d="M116.59,17.23l-3,6.8-7.4.77,5.54,5-1.56,7.28,6.44-3.73L123,37.05l-1.56-7.28,5.54-5-7.4-.77-3-6.8Z"
  />
  <rect class="cls-13" x="2.76" y="2.44" width="270.31" height="63.84" rx="7" ry="7" />
  <text class="cls-14" transform="translate(106.4 53.64)">Cr
    <tspan class="cls-15" x="9.75" y="0">ow</tspan>
    <tspan class="cls-16" x="22.82" y="0">d rating from 2</tspan>
    <tspan class="cls-17" x="89.15" y="0">7</tspan>
    <tspan x="94.12" y="0">000 analy</tspan>
    <tspan class="cls-18" x="140.43" y="0">s</tspan>
    <tspan x="145.05" y="0">ts</tspan>
  </text>
</svg>