<svg height="11" viewBox="0 0 13 11" width="13" xmlns="http://www.w3.org/2000/svg"><path d="m861.2 946.668h-1.36v-.535a1.817 1.817 0 0 0 -1.979-1.582h-2.722a1.817 1.817 0 0 0 -1.979 1.582v.535h-1.36a1.647 1.647 0 0 0 -1.8 1.432v1.805h13v-1.805a1.647 1.647 0 0 0 -1.8-1.432zm-2.8 0h-3.8v-.535a.5.5 0 0 1 .542-.434h2.722a.5.5 0 0 1 .542.434v.535zm2.825 4.9a.382.382 0 0 1 -.417.334h-1.487a.383.383 0 0 1 -.418-.334v-.594h-4.812v.594a.383.383 0 0 1 -.418.334h-1.487a.382.382 0 0 1 -.417-.334v-.594h-1.769v3.146a1.647 1.647 0 0 0 1.8 1.436h9.4a1.647 1.647 0 0 0 1.8-1.436v-3.146h-1.772v.594z" fill="#4d7ced" fill-rule="evenodd" transform="translate(-850 -944.562)"/></svg>