<svg height="11" viewBox="0 0 11 11" width="11" xmlns="http://www.w3.org/2000/svg"><path d="m855.5 770.355a2.718 2.718 0 0 0 2.466-2.914c0-2.232-1.1-2.914-2.466-2.914s-2.466.682-2.466 2.914a2.718 2.718 0 0 0 2.466 2.914zm5.446 4.29-1.244-2.83a.627.627 0 0 0 -.282-.3l-1.931-1.015a.124.124 0 0 0 -.132.011 3.022 3.022 0 0 1 -3.714 0 .125.125 0 0 0 -.133-.011l-1.931 1.015a.63.63 0 0 0 -.281.3l-1.244 2.83a.633.633 0 0 0 .047.6.619.619 0 0 0 .521.285h9.755a.62.62 0 0 0 .522-.285.633.633 0 0 0 .047-.6z" fill="#ed1c24" fill-rule="evenodd" transform="translate(-850 -764.531)"/></svg>