<svg viewBox="0 0 296.1 31.48" xmlns="http://www.w3.org/2000/svg"><g fill="#fff"><path d="m39.7.75-11.52 30.65-8.29-18.86-8.21 18.94-11.68-30.73h5.74l6.06 16.25 8.09-16.85 7.85 16.85 6.38-16.25z"/><path d="m52 30.24h-5.64l-.08-21.36-3.19 2.55-1.6-3.51 10.51-7.33z"/><path d="m75.81 30.24h-21.4l14.27-16.78a6.84 6.84 0 0 0 2-4.1 4.13 4.13 0 0 0 -1.45-3.11 4.59 4.59 0 0 0 -3.23-1.36 5.05 5.05 0 0 0 -3.69 1.38 4.84 4.84 0 0 0 -1.41 3.64h-5.22q1-9.72 10-9.72a14.57 14.57 0 0 1 2 .12 9.26 9.26 0 0 1 5.66 3.13 8.6 8.6 0 0 1 2.39 5.92 9.17 9.17 0 0 1 -2.23 6.13l-8.5 10.05h10.81z"/><path d="m84.74 26.26v4.62h-5.58v-4.54z"/><path d="m95.1 1.7v5.3h-5.1v-5.3zm.12 28.54h-5.06v-18.89h5.06z"/><path d="m119.54 21.19a8.85 8.85 0 0 1 -3.13 6.92 10.94 10.94 0 0 1 -14.53 0 9 9 0 0 1 -3.23-6.94 9.1 9.1 0 0 1 3.15-7 11.17 11.17 0 0 1 14.59 0 9.1 9.1 0 0 1 3.15 7.02zm-5.06 0a4.86 4.86 0 0 0 -1.58-3.68 5.32 5.32 0 0 0 -3.8-1.5 5.47 5.47 0 0 0 -3.85 1.5 4.85 4.85 0 0 0 -1.62 3.72 4.58 4.58 0 0 0 1.72 3.59 5.59 5.59 0 0 0 7.51 0 4.65 4.65 0 0 0 1.62-3.63z"/><path d="m164.79 19.89h-4.93v-9.8h4.6a3.38 3.38 0 0 1 2.17.64 2.2 2.2 0 0 1 .8 1.81 2.11 2.11 0 0 1 -.35 1.22 2.07 2.07 0 0 1 -.88.73 2.52 2.52 0 0 1 1.4.86 2.61 2.61 0 0 1 .59 1.75 2.5 2.5 0 0 1 -.93 2 3.71 3.71 0 0 1 -2.47.79zm-2.92-8.12v2.15h2.27a1.55 1.55 0 0 0 1-.28.92.92 0 0 0 .36-.78 1 1 0 0 0 -.36-.8 1.5 1.5 0 0 0 -1-.29zm0 3.82v2.56h2.54a1.85 1.85 0 0 0 1.17-.33 1.12 1.12 0 0 0 .42-.94 1.14 1.14 0 0 0 -.42-.95 1.79 1.79 0 0 0 -1.17-.34z"/><path d="m171.63 20.07a1.7 1.7 0 0 1 -1.86-1.93v-8h2v7.53c0 .47.21.7.63.7a.92.92 0 0 0 .51-.13v1.63a2.76 2.76 0 0 1 -1.28.2z"/><path d="m173.76 16.39a3.43 3.43 0 0 1 1.09-2.6 4.16 4.16 0 0 1 5.57 0 3.46 3.46 0 0 1 1.09 2.6 3.52 3.52 0 0 1 -1.09 2.61 4.22 4.22 0 0 1 -5.57 0 3.52 3.52 0 0 1 -1.09-2.61zm2 0a1.93 1.93 0 0 0 .54 1.4 1.88 1.88 0 0 0 1.39.56 1.85 1.85 0 0 0 1.38-.56 1.93 1.93 0 0 0 .55-1.4 1.88 1.88 0 0 0 -.62-1.39 1.85 1.85 0 0 0 -1.38-.56 1.88 1.88 0 0 0 -1.39.56 1.91 1.91 0 0 0 -.52 1.39z"/><path d="m186.3 20.07a3.86 3.86 0 0 1 -2.67-1 3.47 3.47 0 0 1 -1.12-2.69 3.34 3.34 0 0 1 1.12-2.64 3.94 3.94 0 0 1 2.7-1 4.5 4.5 0 0 1 2.07.46v1.68a4.21 4.21 0 0 0 -1.78-.42 2.26 2.26 0 0 0 -1.55.55 1.75 1.75 0 0 0 -.61 1.4 1.79 1.79 0 0 0 .62 1.41 2.26 2.26 0 0 0 1.54.55 3.64 3.64 0 0 0 1.89-.48v1.68a4.59 4.59 0 0 1 -2.21.5z"/><path d="m192.17 19.89h-2v-9.8h2v5.36l2.41-2.55h2.42l-3 3.15 3.51 3.84h-2.54l-2.76-3z"/><path d="m201.41 20.07a3.89 3.89 0 0 1 -2.68-1 3.51 3.51 0 0 1 -1.12-2.69 3.37 3.37 0 0 1 1.12-2.64 4 4 0 0 1 2.71-1 4.56 4.56 0 0 1 2.07.46v1.68a4.24 4.24 0 0 0 -1.78-.42 2.25 2.25 0 0 0 -1.55.55 1.89 1.89 0 0 0 0 2.81 2.24 2.24 0 0 0 1.54.55 3.64 3.64 0 0 0 1.89-.48v1.68a4.59 4.59 0 0 1 -2.2.5z"/><path d="m207.27 15.44v4.45h-2v-9.8h2v3.67a3.08 3.08 0 0 1 2.34-1 2.4 2.4 0 0 1 1.88.76 3.11 3.11 0 0 1 .67 2.13v4.28h-2v-3.93a1.56 1.56 0 0 0 -.37-1.12 1.33 1.33 0 0 0 -1-.36 1.66 1.66 0 0 0 -.89.26 2 2 0 0 0 -.63.66z"/><path d="m220.6 18.36a.93.93 0 0 0 .41-.08v1.44a1.68 1.68 0 0 1 -1.07.29 1.54 1.54 0 0 1 -1.58-.89 3.21 3.21 0 0 1 -2.4.95 2.69 2.69 0 0 1 -1.87-.64 2.2 2.2 0 0 1 -.71-1.7 2 2 0 0 1 .81-1.71 3.24 3.24 0 0 1 1.95-.58 4.27 4.27 0 0 1 2 .43v-.21c0-.88-.61-1.32-1.84-1.32a4.06 4.06 0 0 0 -2.12.59v-1.65a5.54 5.54 0 0 1 2.59-.56 3.69 3.69 0 0 1 2.41.73 2.4 2.4 0 0 1 .92 2v2.37c.01.37.17.54.5.54zm-2.45-.53v-.7a2.57 2.57 0 0 0 -1.45-.41 1.86 1.86 0 0 0 -1 .24.82.82 0 0 0 0 1.35 1.54 1.54 0 0 0 .91.23 1.85 1.85 0 0 0 1.54-.71z"/><path d="m222.28 11.05a1.15 1.15 0 0 1 .35-.84 1.11 1.11 0 0 1 .83-.35 1.13 1.13 0 0 1 .83.35 1.21 1.21 0 0 1 0 1.68 1.12 1.12 0 0 1 -.83.34 1.1 1.1 0 0 1 -.83-.34 1.15 1.15 0 0 1 -.35-.84zm2.17 8.84h-2v-7h2z"/><path d="m228.46 15.44v4.45h-2v-7h2v.84a3 3 0 0 1 2.33-1 2.4 2.4 0 0 1 1.88.76 3.11 3.11 0 0 1 .67 2.13v4.28h-2v-3.9a1.51 1.51 0 0 0 -.37-1.12 1.33 1.33 0 0 0 -1-.36 1.66 1.66 0 0 0 -.89.26 1.88 1.88 0 0 0 -.62.66z"/><path d="m243 12.72a3 3 0 0 1 2.35 1.07 3.72 3.72 0 0 1 .94 2.61 3.8 3.8 0 0 1 -.94 2.62 3 3 0 0 1 -2.35 1.05 2.78 2.78 0 0 1 -2.3-1v3.65h-2v-9.82h2v.86a2.72 2.72 0 0 1 2.3-1.04zm-.56 1.72a1.82 1.82 0 0 0 -1 .3 2 2 0 0 0 -.72.75v1.82a2 2 0 0 0 .72.75 1.92 1.92 0 0 0 1 .29 1.79 1.79 0 0 0 1.36-.56 2.1 2.1 0 0 0 0-2.79 1.79 1.79 0 0 0 -1.37-.56z"/><path d="m249.71 19.89h-2v-7h2v1.18a2.64 2.64 0 0 1 1-.95 2.79 2.79 0 0 1 1.45-.41 1 1 0 0 1 .23 0v1.93a2.4 2.4 0 0 0 -.62-.07 2.28 2.28 0 0 0 -1.25.36 1.91 1.91 0 0 0 -.79.86z"/><path d="m253.19 16.39a3.44 3.44 0 0 1 1.1-2.6 3.77 3.77 0 0 1 2.78-1.07 3.81 3.81 0 0 1 2.79 1.07 3.46 3.46 0 0 1 1.09 2.6 3.52 3.52 0 0 1 -1.09 2.61 3.87 3.87 0 0 1 -2.79 1.05 3.83 3.83 0 0 1 -2.78-1.05 3.53 3.53 0 0 1 -1.1-2.61zm1.95 0a1.9 1.9 0 0 0 .55 1.4 1.85 1.85 0 0 0 1.38.56 1.88 1.88 0 0 0 1.39-.56 2 2 0 0 0 .55-1.4 1.92 1.92 0 0 0 -.55-1.39 1.87 1.87 0 0 0 -1.39-.56 1.85 1.85 0 0 0 -1.38.56 1.88 1.88 0 0 0 -.55 1.39z"/><path d="m262.9 17.72v-3.17h-1.38v-1.65h1.38v-1.9h2v1.9h2v1.65h-2v2.78a1.07 1.07 0 0 0 .22.75 1 1 0 0 0 .73.23 2.21 2.21 0 0 0 1-.26v1.64a3.16 3.16 0 0 1 -1.66.38 2 2 0 0 1 -2.29-2.35z"/><path d="m268 16.39a3.43 3.43 0 0 1 1.09-2.6 4.16 4.16 0 0 1 5.57 0 3.47 3.47 0 0 1 1.1 2.6 3.53 3.53 0 0 1 -1.1 2.63 3.83 3.83 0 0 1 -2.78 1.05 3.87 3.87 0 0 1 -2.88-1.07 3.52 3.52 0 0 1 -1-2.61zm1.95 0a1.93 1.93 0 0 0 .54 1.4 1.88 1.88 0 0 0 1.39.56 1.85 1.85 0 0 0 1.38-.56 1.93 1.93 0 0 0 .55-1.4 1.88 1.88 0 0 0 -.55-1.39 1.85 1.85 0 0 0 -1.38-.56 1.88 1.88 0 0 0 -1.39.56 1.91 1.91 0 0 0 -.59 1.39z"/><path d="m280.49 20.07a3.88 3.88 0 0 1 -2.67-1 3.47 3.47 0 0 1 -1.12-2.69 3.34 3.34 0 0 1 1.12-2.64 4 4 0 0 1 2.7-1 4.5 4.5 0 0 1 2.07.46v1.68a4.2 4.2 0 0 0 -1.77-.42 2.27 2.27 0 0 0 -1.56.55 1.75 1.75 0 0 0 -.61 1.4 1.77 1.77 0 0 0 .63 1.41 2.24 2.24 0 0 0 1.54.55 3.64 3.64 0 0 0 1.89-.48v1.68a4.66 4.66 0 0 1 -2.22.5z"/><path d="m283.78 16.39a3.44 3.44 0 0 1 1.1-2.6 3.77 3.77 0 0 1 2.78-1.07 3.81 3.81 0 0 1 2.79 1.07 3.46 3.46 0 0 1 1.09 2.6 3.52 3.52 0 0 1 -1.09 2.61 3.87 3.87 0 0 1 -2.79 1.05 3.83 3.83 0 0 1 -2.78-1.05 3.53 3.53 0 0 1 -1.1-2.61zm2 0a1.9 1.9 0 0 0 .55 1.4 1.85 1.85 0 0 0 1.38.56 1.88 1.88 0 0 0 1.39-.56 2 2 0 0 0 .54-1.4 1.91 1.91 0 0 0 -.54-1.39 1.88 1.88 0 0 0 -1.39-.56 1.85 1.85 0 0 0 -1.38.56 1.88 1.88 0 0 0 -.6 1.39z"/><path d="m294.86 20.07a1.69 1.69 0 0 1 -1.86-1.93v-8h2v7.53c0 .47.21.7.63.7a.89.89 0 0 0 .5-.13v1.63a2.71 2.71 0 0 1 -1.27.2z"/><path d="m138.28 0h2v31h-2z"/></g></svg>