<?xml version="1.0" encoding="utf-8"?>
<!-- Generator: Adobe Illustrator 16.2.0, SVG Export Plug-In . SVG Version: 6.00 Build 0)  -->
<!DOCTYPE svg PUBLIC "-//W3C//DTD SVG 1.1//EN" "http://www.w3.org/Graphics/SVG/1.1/DTD/svg11.dtd">
<svg version="1.1" id="Слой_1" xmlns="http://www.w3.org/2000/svg" xmlns:xlink="http://www.w3.org/1999/xlink" x="0px" y="0px"
	 width="21px" height="16px" viewBox="0 0 21 16" enable-background="new 0 0 21 16" xml:space="preserve">
<path id="coins.svg" fill="#B4B4B4" d="M4.746,6.073C2.039,6.073,0,4.773,0,3.036C0,1.299,2.039,0,4.746,0s4.745,1.3,4.745,3.036
	C9.491,4.772,7.452,6.073,4.746,6.073z M4.746,1.304c-2.258,0-3.7,1.029-3.7,1.738s1.44,1.737,3.7,1.737c2.26,0,3.7-1.028,3.7-1.737
	S7,1.3,4.746,1.3V1.304z M0.397,6.132C0.655,6.033,0.944,6.163,1.042,6.42c0.012,0.031,0.021,0.063,0.026,0.097
	c0.223,0.752,1.69,1.564,3.672,1.564c1.93,0,3.375-0.769,3.654-1.51c0.066-0.262,0.332-0.42,0.594-0.354
	c0.037,0.009,0.072,0.022,0.106,0.04C9.37,6.452,9.475,6.811,9.348,7.123C8.837,8.476,6.986,9.38,4.742,9.38
	C3.73,9.395,2.729,9.184,1.808,8.764C1.003,8.437,0.375,7.782,0.084,6.963C-0.02,6.646,0.112,6.3,0.4,6.132H0.397z M0.397,9.445
	c0.258-0.1,0.547,0.029,0.646,0.287c0.012,0.031,0.021,0.064,0.026,0.097c0.223,0.751,1.69,1.562,3.672,1.562
	c1.93,0,3.375-0.761,3.654-1.507c0.066-0.262,0.332-0.421,0.594-0.354c0.037,0.01,0.072,0.023,0.106,0.041
	c0.275,0.196,0.38,0.557,0.253,0.869c-0.511,1.351-2.362,2.25-4.606,2.25c-1.011,0.016-2.013-0.192-2.934-0.609
	c-0.806-0.331-1.433-0.989-1.724-1.811C-0.02,9.955,0.112,9.61,0.4,9.445H0.397z M0.397,12.745c0.262-0.097,0.552,0.038,0.648,0.3
	c0.011,0.029,0.019,0.06,0.024,0.09c0.223,0.75,1.69,1.561,3.672,1.561c1.93,0,3.375-0.771,3.654-1.51
	c0.07-0.263,0.338-0.418,0.601-0.35c0.034,0.01,0.068,0.023,0.1,0.039c0.274,0.193,0.379,0.549,0.253,0.859
	c-0.511,1.361-2.362,2.261-4.606,2.261c-1.012,0.013-2.014-0.2-2.934-0.62c-0.805-0.327-1.432-0.982-1.724-1.8
	c-0.1-0.315,0.032-0.657,0.316-0.825L0.397,12.745z M11.91,12.745c0.262-0.097,0.552,0.038,0.648,0.3
	c0.01,0.029,0.018,0.06,0.023,0.09c0.223,0.75,1.689,1.561,3.672,1.561c1.93,0,3.375-0.771,3.654-1.51
	c0.069-0.263,0.338-0.418,0.601-0.35c0.034,0.01,0.067,0.023,0.099,0.039c0.275,0.193,0.38,0.549,0.254,0.859
	c-0.512,1.361-2.362,2.261-4.606,2.261c-1.012,0.013-2.014-0.2-2.935-0.62c-0.805-0.327-1.432-0.982-1.723-1.8
	c-0.101-0.314,0.029-0.656,0.313-0.825V12.745z M16.254,6.615c2.707,0,4.746,1.3,4.746,3.036c0,1.736-2.039,3.035-4.746,3.035
	s-4.746-1.301-4.746-3.035c0-1.733,2.039-3.03,4.746-3.03V6.615z M16.254,11.385c2.258,0,3.7-1.02,3.7-1.734
	c0-0.713-1.44-1.736-3.7-1.736c-2.259,0-3.699,1.027-3.699,1.736s1.445,1.74,3.699,1.74V11.385z"/>
</svg>
