<svg xmlns="http://www.w3.org/2000/svg" fill="#272727" width="100%" height="100%" viewBox="0 0 149 153">
  <path d="M894.571,408.454l-3.244,8.76h1.91l0.6-1.805h3.149l0.6,1.805h1.91l-3.263-8.76h-1.664Zm-0.251,5.493,1.084-3.279,1.1,3.279H894.32Zm7.787-5.493h-1.795v8.76h5.608v-1.45h-3.813v-7.31Zm3.077,1.462h2.634v7.3h1.8v-7.3h2.67v-1.462h-7.1v1.462Zm9.957,0.563a1.521,1.521,0,0,1,1.355-.665,2.373,2.373,0,0,1,.754.1,1.244,1.244,0,0,1,.509.31,1.354,1.354,0,0,1,.3.506,2.778,2.778,0,0,1,.134.691h1.8a4.14,4.14,0,0,0-.311-1.236,2.941,2.941,0,0,0-.683-0.981,3.106,3.106,0,0,0-1.062-.644,4.143,4.143,0,0,0-1.44-.231,3.672,3.672,0,0,0-1.5.3,3.146,3.146,0,0,0-1.14.842,3.866,3.866,0,0,0-.728,1.33,5.6,5.6,0,0,0-.257,1.75v0.578a5.735,5.735,0,0,0,.249,1.748,3.8,3.8,0,0,0,.712,1.326,3.068,3.068,0,0,0,1.131.839,3.714,3.714,0,0,0,1.5.292,4.251,4.251,0,0,0,1.44-.226,3.157,3.157,0,0,0,1.074-.625,2.868,2.868,0,0,0,.7-0.96,3.613,3.613,0,0,0,.3-1.227h-1.8a2.416,2.416,0,0,1-.144.686,1.248,1.248,0,0,1-.834.782,2.484,2.484,0,0,1-.734.1,1.8,1.8,0,0,1-.817-0.171,1.372,1.372,0,0,1-.55-0.515,2.511,2.511,0,0,1-.312-0.854,6.421,6.421,0,0,1-.1-1.191v-0.59A3.752,3.752,0,0,1,915.141,410.479Zm12.141-.99a3.285,3.285,0,0,0-1.173-.857,3.937,3.937,0,0,0-3,0,3.285,3.285,0,0,0-1.173.857,3.984,3.984,0,0,0-.763,1.36,5.547,5.547,0,0,0-.272,1.8v0.386a5.485,5.485,0,0,0,.275,1.8,3.916,3.916,0,0,0,.769,1.351,3.362,3.362,0,0,0,1.176.852,3.949,3.949,0,0,0,3,0,3.3,3.3,0,0,0,1.17-.852,3.9,3.9,0,0,0,.757-1.351,5.6,5.6,0,0,0,.269-1.8v-0.386a5.547,5.547,0,0,0-.272-1.8A3.967,3.967,0,0,0,927.282,409.489Zm-0.784,3.544a3.768,3.768,0,0,1-.485,2.1,1.578,1.578,0,0,1-1.394.722,1.734,1.734,0,0,1-.809-0.183,1.625,1.625,0,0,1-.595-0.542,2.714,2.714,0,0,1-.371-0.884,5.119,5.119,0,0,1-.129-1.212v-0.4a3.7,3.7,0,0,1,.491-2.093,1.728,1.728,0,0,1,2.8,0,3.7,3.7,0,0,1,.491,2.093v0.4Zm3.238,4.181h1.8v-8.76h-1.8v8.76Zm10.547-8.76h-1.79v5.776l-3.5-5.776H933.2v8.76h1.795V411.45l3.5,5.764h1.8v-8.76ZM1032,355.724a28.453,28.453,0,0,0-31.37-28.479,20.363,20.363,0,0,0-38.969-11.83,52.145,52.145,0,0,0-26.176-7.025,52.808,52.808,0,0,0-35.154,91.923H888.377A5.4,5.4,0,0,0,883,405.718V419.2a5.4,5.4,0,0,0,5.377,5.406h50.852a42.825,42.825,0,0,0,14.69,20.773A41.731,41.731,0,0,0,979.434,454a42.507,42.507,0,0,0,31.6-70.66A28.658,28.658,0,0,0,1032,355.724Zm-50.893-51.846a17.592,17.592,0,0,1,6.089,34.059l-0.19.069c-0.185.067-.372,0.13-0.56,0.191-0.069.022-.137,0.046-0.206,0.067-0.234.072-.471,0.14-0.709,0.2-0.08.021-.161,0.039-0.242,0.059-0.168.042-.338,0.081-0.508,0.118-0.1.022-.2,0.042-0.3,0.062-0.175.035-.351,0.066-0.528,0.095-0.079.013-.158,0.028-0.237,0.04-0.244.037-.491,0.068-0.738,0.095l-0.257.024c-0.186.017-.372,0.032-0.56,0.043-0.085,0-.172.011-0.258,0.014-0.26.012-.521,0.02-0.783,0.02h-0.013a17.492,17.492,0,0,1-15.415-9.284c-0.206-.385-0.395-0.78-0.573-1.181q-0.143-.322-0.273-0.653a17.451,17.451,0,0,1-.584-1.742c-0.12-.432-0.226-0.869-0.313-1.313-0.1-.5-0.175-1-0.229-1.513a17.694,17.694,0,0,1-.1-1.894c0-.3.007-0.6,0.022-0.9,0.007-.136.021-0.27,0.031-0.406,0.012-.162.02-0.325,0.037-0.486,0.008-.084.022-0.168,0.031-0.253A17.546,17.546,0,0,1,981.107,303.878Zm-95.245,57.267a49.807,49.807,0,0,1,49.623-49.878,49.3,49.3,0,0,1,25.5,7.087c-0.045.3-.082,0.608-0.115,0.914-0.01.094-.018,0.188-0.026,0.281-0.021.226-.039,0.452-0.052,0.679-0.006.1-.012,0.193-0.016,0.29-0.015.313-.024,0.626-0.024,0.94q0,0.51.026,1.014c0,0.111.016,0.221,0.023,0.332,0.014,0.224.029,0.447,0.051,0.669,0.013,0.132.03,0.262,0.046,0.393,0.023,0.2.046,0.4,0.075,0.594,0.021,0.139.045,0.277,0.068,0.415,0.032,0.187.064,0.373,0.1,0.558,0.028,0.142.059,0.282,0.09,0.423,0.039,0.179.079,0.357,0.123,0.534,0.035,0.142.072,0.283,0.11,0.424,0.047,0.172.1,0.345,0.147,0.516,0.042,0.141.085,0.281,0.13,0.42,0.054,0.168.111,0.336,0.17,0.5,0.048,0.138.1,0.277,0.149,0.414,0.062,0.164.127,0.327,0.192,0.488,0.056,0.137.111,0.272,0.169,0.407,0.068,0.16.141,0.318,0.214,0.476,0.061,0.133.122,0.266,0.186,0.4,0.076,0.156.157,0.31,0.237,0.464,0.067,0.129.132,0.259,0.2,0.386,0.084,0.154.173,0.305,0.261,0.457,0.072,0.123.141,0.248,0.215,0.369,0.1,0.156.2,0.309,0.295,0.462,0.073,0.113.143,0.228,0.218,0.339q0.258,0.381.53,0.749c0.1,0.128.2,0.251,0.293,0.377s0.189,0.246.286,0.366,0.217,0.256.327,0.384c0.094,0.111.188,0.222,0.285,0.331,0.114,0.128.233,0.252,0.35,0.377,0.1,0.1.193,0.207,0.292,0.307,0.122,0.125.248,0.247,0.373,0.369,0.1,0.1.2,0.192,0.3,0.285,0.13,0.122.263,0.24,0.4,0.358,0.1,0.089.2,0.177,0.3,0.264,0.137,0.117.277,0.232,0.417,0.345,0.1,0.082.2,0.164,0.308,0.244q0.219,0.168.441,0.332c0.1,0.075.206,0.148,0.31,0.221,0.154,0.109.308,0.216,0.465,0.32,0.1,0.067.2,0.132,0.306,0.2,0.164,0.1.328,0.208,0.5,0.308,0.1,0.058.2,0.113,0.293,0.17,0.176,0.1.352,0.2,0.53,0.3,0.088,0.047.177,0.091,0.266,0.137,0.192,0.1.385,0.2,0.581,0.293,0.061,0.029.124,0.056,0.186,0.085a20.116,20.116,0,0,0,3.069,1.135c0.086,0.024.171,0.051,0.258,0.074,0.2,0.053.4,0.1,0.6,0.146,0.115,0.027.23,0.056,0.345,0.08,0.189,0.041.379,0.076,0.57,0.111,0.132,0.024.264,0.05,0.4,0.072,0.181,0.029.363,0.054,0.546,0.079,0.092,0.013.182,0.029,0.274,0.04-0.079.142-.153,0.286-0.23,0.429-0.052.1-.106,0.195-0.157,0.293q-0.213.409-.412,0.825c-0.01.021-.022,0.042-0.032,0.064q-0.213.449-.411,0.905c-0.04.092-.077,0.185-0.116,0.278-0.09.213-.178,0.426-0.263,0.641-0.045.113-.087,0.228-0.131,0.342-0.074.2-.147,0.394-0.218,0.593-0.042.12-.084,0.241-0.124,0.361-0.068.2-.132,0.4-0.195,0.6-0.037.117-.075,0.235-0.11,0.353-0.065.216-.126,0.434-0.186,0.653-0.028.1-.057,0.2-0.084,0.3-0.081.312-.158,0.624-0.23,0.938l-0.006.026c-0.073.323-.139,0.648-0.2,0.974-0.019.1-.035,0.2-0.053,0.305-0.04.225-.079,0.451-0.114,0.678-0.019.122-.035,0.246-0.053,0.369-0.029.209-.056,0.417-0.081,0.626-0.015.129-.029,0.258-0.043,0.387q-0.033.313-.058,0.628c-0.01.126-.021,0.251-0.03,0.377q-0.023.341-.037,0.682c0,0.108-.012.215-0.016,0.323-0.011.335-.018,0.671-0.018,1.007q0,0.41.012,0.816c0,0.085.007,0.171,0.01,0.256,0.007,0.187.015,0.374,0.025,0.56,0,0.1.012,0.2,0.019,0.3,0.011,0.175.025,0.35,0.039,0.525,0.009,0.1.017,0.2,0.027,0.3,0.017,0.18.036,0.359,0.056,0.537,0.011,0.091.02,0.183,0.032,0.274q0.041,0.331.09,0.66c0.012,0.081.024,0.162,0.037,0.243,0.034,0.218.07,0.434,0.108,0.65,0.023,0.126.048,0.25,0.072,0.375s0.05,0.257.076,0.384c0.031,0.146.063,0.291,0.095,0.436,0.022,0.1.045,0.2,0.068,0.3,0.039,0.165.078,0.329,0.12,0.492l0.045,0.17a28.5,28.5,0,0,0,2.352,6.085c-0.109,0-.218.008-0.326,0.012-0.154,0-.308.009-0.461,0.016s-0.279.014-.418,0.022-0.307.015-.46,0.025l-0.414.03c-0.154.011-.307,0.022-0.46,0.035l-0.409.038c-0.154.015-.308,0.028-0.462,0.045-0.134.014-.268,0.031-0.4,0.046-0.155.018-.31,0.034-0.464,0.054-0.127.016-.253,0.035-0.379,0.052-0.333.045-.664,0.094-1,0.147l-0.327.051c-0.153.026-.305,0.055-0.457,0.082-0.133.024-.265,0.046-0.4,0.071l-0.183.036a36.811,36.811,0,1,0-31.916,28.134,0.049,0.049,0,0,0,0,.011c-0.038.114-.075,0.228-0.112,0.342-0.051.158-.1,0.315-0.152,0.474-0.037.116-.072,0.232-0.107,0.349-0.048.157-.1,0.314-0.142,0.472-0.034.118-.067,0.237-0.1,0.356s-0.065.223-.095,0.335H904.763A49.66,49.66,0,0,1,885.862,361.145Zm82.293,9.434-0.034.009c-0.14.039-.28,0.08-0.42,0.12s-0.273.079-.409,0.12-0.278.085-.416,0.128l-0.406.128-0.413.137c-0.135.045-.271,0.09-0.4,0.137s-0.272.1-.408,0.144-0.27.1-.4,0.147-0.269.1-.4,0.152l-0.4.155-0.4.16c-0.134.055-.268,0.109-0.4,0.165l-0.394.167c-0.134.058-.267,0.116-0.4,0.175s-0.26.115-.389,0.174l-0.4.184-0.383.182-0.4.193-0.38.19c-0.131.067-.263,0.134-0.394,0.2s-0.249.129-.374,0.2l-0.393.213c-0.123.067-.246,0.134-0.368,0.2l-0.391.223c-0.121.07-.242,0.139-0.363,0.21l-0.39.233-0.356.215-0.393.246c-0.115.073-.23,0.145-0.344,0.219-0.133.085-.265,0.173-0.4,0.26-0.111.074-.223,0.146-0.333,0.221-0.135.091-.27,0.184-0.4,0.277-0.106.074-.213,0.146-0.318,0.22-0.142.1-.283,0.2-0.423,0.3-0.1.07-.195,0.139-0.292,0.21-0.155.114-.309,0.231-0.464,0.348-0.081.061-.162,0.12-0.242,0.182q-0.351.268-.7,0.546t-0.666.544c-0.074.061-.147,0.124-0.22,0.186-0.146.123-.291,0.246-0.435,0.371l-0.257.227c-0.129.114-.258,0.227-0.385,0.343-0.091.082-.181,0.166-0.271,0.249-0.12.111-.24,0.221-0.359,0.333-0.093.087-.184,0.176-0.275,0.264-0.115.11-.23,0.22-0.343,0.331-0.093.091-.184,0.183-0.276,0.275-0.11.11-.221,0.22-0.33,0.332-0.092.094-.182,0.189-0.273,0.284-0.107.111-.214,0.222-0.319,0.334s-0.181.195-.271,0.293-0.207.224-.309,0.338c-0.09.1-.178,0.2-0.267,0.3s-0.2.227-.3,0.342c-0.041.049-.084,0.1-0.126,0.145s-0.108.128-.162,0.192l-0.265.315-0.193.234q-0.206.249-.406,0.5l-0.139.175a42.44,42.44,0,0,0-5.771,9.744A34.118,34.118,0,1,1,968.155,370.579ZM885.862,419.2V405.718a2.524,2.524,0,0,1,2.515-2.528H943.5a2.523,2.523,0,0,1,2.514,2.528V419.2a2.524,2.524,0,0,1-2.514,2.528H888.377A2.524,2.524,0,0,1,885.862,419.2Zm121.908-35.169a39.483,39.483,0,1,1-65.522,40.575H943.5a5.434,5.434,0,0,0,5.377-5.406V405.718a5.4,5.4,0,0,0-5.377-5.406h-1.844c0.04-.136.081-0.271,0.122-0.406,0.033-.106.064-0.213,0.1-0.319,0.053-.169.108-0.337,0.163-0.5,0.031-.095.061-0.19,0.093-0.285,0.063-.189.13-0.376,0.2-0.564,0.025-.072.049-0.144,0.075-0.216,0.087-.243.177-0.484,0.268-0.725l0.018-.047c0.05-.132.1-0.262,0.155-0.392,0.015-.032.032-0.063,0.046-0.1a39.584,39.584,0,0,1,26.762-23.582l0.07-.023c0.126-.032.253-0.064,0.379-0.094l0.353-.085q0.217-.051.438-0.1l0.355-.077c0.146-.031.294-0.061,0.441-0.09l0.357-.071,0.444-.081,0.36-.063,0.447-.072,0.362-.056c0.15-.022.3-0.042,0.451-0.063,0.121-.016.241-0.033,0.362-0.048l0.456-.054,0.363-.041c0.154-.016.308-0.03,0.463-0.044l0.359-.034c0.159-.013.319-0.024,0.479-0.035,0.115-.008.231-0.018,0.346-0.025,0.168-.011.336-0.018,0.5-0.027l0.327-.017,0.558-.018,0.276-.008q0.418-.009.838-0.009h0.354l0.241,0h0.018c0.024,0.036.051,0.071,0.076,0.107l0.094,0.135,0.006,0.008c0.162,0.232.327,0.46,0.5,0.686h0a28.371,28.371,0,0,0,16.369,10.734l0.007,0q0.324,0.075.65,0.142l0.12,0.025q0.3,0.06.6,0.116l0.132,0.022q0.483,0.084.969,0.152c0.12,0.017.24,0.035,0.361,0.05s0.251,0.029.381,0.044,0.28,0.032.43,0.046c0.12,0.012.24,0.022,0.36,0.032,0.15,0.013.3,0.025,0.46,0.035l0.34,0.023c0.17,0.009.34,0.016,0.5,0.023l0.31,0.011c0.24,0.007.47,0.01,0.7,0.011l0.11,0h0.04q0.45,0,.9-0.017l0.26-.01c0.29-.012.57-0.027,0.85-0.048l0.11-.006c0.31-.024.61-0.054,0.92-0.087l0.27-.031c0.24-.028.48-0.059,0.71-0.093C1007.65,384.051,1007.71,384.045,1007.77,384.035Zm0.08-2.93c-0.26.045-.53,0.087-0.79,0.124l-0.22.031c-0.32.041-.63,0.075-0.95,0.105l-0.2.017c-0.33.028-.65,0.05-0.98,0.065-0.05,0-.1,0-0.16.006-0.34.014-.69,0.023-1.03,0.023-0.25,0-.5,0-0.75-0.012l-0.24-.009q-0.255-.009-0.51-0.024l-0.27-.017c-0.16-.011-0.32-0.024-0.48-0.038l-0.27-.025c-0.17-.016-0.34-0.036-0.51-0.056-0.11-.012-0.21-0.024-0.31-0.037q-0.294-.039-0.59-0.084c-0.134-.021-0.268-0.044-0.4-0.068l-0.281-.049c-0.155-.028-0.31-0.058-0.464-0.089l-0.175-.036a25.763,25.763,0,0,1-19.186-17.462c-0.015-.049-0.031-0.1-0.046-0.147q-0.076-.247-0.148-0.5c-0.027-.095-0.052-0.19-0.078-0.285q-0.091-.333-0.174-0.671c-0.035-.147-0.071-0.294-0.1-0.442-0.027-.116-0.052-0.233-0.076-0.349-0.037-.176-0.073-0.353-0.106-0.53-0.016-.083-0.033-0.165-0.047-0.249-0.046-.254-0.087-0.51-0.125-0.766-0.012-.081-0.023-0.163-0.034-0.244q-0.043-.312-0.079-0.626c-0.008-.071-0.017-0.141-0.024-0.212-0.028-.271-0.053-0.542-0.073-0.814,0-.055-0.007-0.11-0.01-0.165-0.015-.227-0.028-0.455-0.037-0.683l-0.009-.228c-0.009-.278-0.015-0.557-0.015-0.837q0-.474.018-0.946c0-.1.011-0.207,0.016-0.311,0.01-.21.02-0.421,0.035-0.63,0.009-.124.022-0.248,0.033-0.372,0.016-.188.032-0.377,0.052-0.565,0.014-.131.032-0.262,0.048-0.394,0.023-.178.044-0.357,0.07-0.535,0.02-.136.043-0.271,0.065-0.406,0.028-.173.055-0.345,0.086-0.517,0.025-.137.054-0.274,0.081-0.411,0.033-.168.067-0.336,0.1-0.5,0.03-.138.063-0.275,0.1-0.413q0.058-.248.121-0.494c0.035-.138.073-0.274,0.111-0.411,0.045-.162.091-0.325,0.139-0.487,0.04-.136.083-0.272,0.126-0.408q0.075-.24.156-0.48c0.046-.134.092-0.269,0.14-0.4,0.057-.159.115-0.316,0.174-0.473,0.051-.134.1-0.267,0.155-0.4q0.093-.234.191-0.466c0.056-.132.112-0.263,0.17-0.394q0.1-.231.209-0.46c0.06-.129.12-0.258,0.182-0.387,0.074-.152.151-0.3,0.228-0.455,0.064-.126.129-0.253,0.2-0.378,0.081-.151.164-0.3,0.247-0.451,0.069-.123.137-0.246,0.207-0.368,0.087-.151.177-0.3,0.268-0.448,0.072-.119.143-0.238,0.217-0.357,0.021-.034.044-0.067,0.066-0.1,0.047,0,.093,0,0.139-0.008,0.093,0,.185-0.01.277-0.015,0.23-.014.459-0.031,0.688-0.053l0.248-.022q0.42-.045.837-0.108c0.1-.015.205-0.032,0.307-0.049,0.2-.033.4-0.069,0.6-0.109,0.1-.019.2-0.037,0.3-0.058q0.4-.085.8-0.187c0.09-.023.179-0.048,0.269-0.072q0.312-.086.621-0.178l0.252-.077c0.278-.089.555-0.183,0.829-0.283l0.089-.034q0.4-.15.8-0.318l0.1-.042a20.4,20.4,0,0,0,10.4-9.991A25.75,25.75,0,0,1,1007.85,381.105Zm-14.668,33.643-13.748,8.488-13.748-8.488a1.425,1.425,0,0,0-1.793.24,1.444,1.444,0,0,0-.128,1.812l14.5,20.739a1.428,1.428,0,0,0,2.342,0L995.1,416.8a1.444,1.444,0,0,0-.128-1.812A1.426,1.426,0,0,0,993.182,414.748Zm-13.748,19.461-9.343-13.364,8.593,5.306a1.429,1.429,0,0,0,1.5,0l8.593-5.306Zm1.146-46.1a1.427,1.427,0,0,0-2.292,0l-14.5,19.479a1.444,1.444,0,0,0,.407,2.094l14.5,8.784a1.424,1.424,0,0,0,1.479,0l14.5-8.784a1.442,1.442,0,0,0,.407-2.094Zm-1.146,27.445-12.4-7.516,12.4-16.666,12.4,16.666ZM1015.29,362.4h-12.71l0.93-4.461,6.67-4.594a1.4,1.4,0,0,0,.59-0.9l1.13-5.534a1.43,1.43,0,0,0-2.21-1.473l-4.15,2.865,1.53-6.92a1.437,1.437,0,0,0-1.39-1.751h-5.49a1.433,1.433,0,0,0-1.4,1.132l-3.117,14.365-2.537,1.755a1.437,1.437,0,0,0-.6.925l-0.988,5.394a1.444,1.444,0,0,0,.629,1.467,1.423,1.423,0,0,0,1.519.024l-0.746,3.582a1.437,1.437,0,0,0,1.4,1.734h19.962a1.432,1.432,0,0,0,1.4-1.147l0.97-4.734a1.406,1.406,0,0,0-.29-1.2A1.426,1.426,0,0,0,1015.29,362.4Zm-2.14,4.734H996.12l1.116-5.353a1.445,1.445,0,0,0-.607-1.492,1.427,1.427,0,0,0-1.6.011l-0.031.021,0.257-1.4,2.515-1.739a1.447,1.447,0,0,0,.587-0.879l2.987-13.788h2.55l-1.93,8.74a1.435,1.435,0,0,0,2.21,1.5l4.21-2.916-0.3,1.467-6.66,4.591a1.469,1.469,0,0,0-.59.89l-1.412,6.761a1.436,1.436,0,0,0,1.4,1.735h12.72Zm-68.8-23.086h-4.82V337.9a1.431,1.431,0,1,0-2.862,0v6.151h-7.019V337.9a1.432,1.432,0,1,0-2.863,0v6.151h-6.119a1.439,1.439,0,0,0,0,2.877h6.119v25.892h-6.119a1.439,1.439,0,0,0,0,2.877h6.119v6.151a1.432,1.432,0,1,0,2.863,0V375.7h7.019v6.151a1.431,1.431,0,1,0,2.862,0V375.7h4.82a7.419,7.419,0,0,0,7.392-7.43v-2.4a7.436,7.436,0,0,0-3.027-5.991,7.433,7.433,0,0,0,3.027-5.991v-2.4A7.419,7.419,0,0,0,944.346,344.049Zm4.529,21.814v2.4a4.546,4.546,0,0,1-4.529,4.553h-14.7V361.311H944.35A4.546,4.546,0,0,1,948.875,365.863Zm0-11.982a4.547,4.547,0,0,1-4.525,4.553H929.645V346.926h14.7a4.547,4.547,0,0,1,4.529,4.553v2.4Zm17.987-32.212v0.038a6.278,6.278,0,0,0,11.876,2.74,0.645,0.645,0,0,1,.725-0.076,0.524,0.524,0,0,1,.279.547,6.3,6.3,0,1,0,11.037,6,6.111,6.111,0,0,0-2.544-8.17h0a6.4,6.4,0,0,0-2.991-.789c-0.045,0-.089,0-0.135,0a0.582,0.582,0,0,1-.621-0.551,0.534,0.534,0,0,1,.233-0.442,6.244,6.244,0,0,0,5.009-2.223,6.1,6.1,0,0,0,.266-7.846,6.3,6.3,0,0,0-10.323,7.2,0.533,0.533,0,0,1-.275.453,0.632,0.632,0,0,1-.834-0.183c-0.007-.012-0.015-0.023-0.022-0.034s-0.021-.033-0.03-0.049l-0.018-.028-0.012-.018a6.246,6.246,0,0,0-5.338-2.982,6.315,6.315,0,0,0-6.034,4.551,5.972,5.972,0,0,0-.25,1.691c0,0.016,0,.059,0,0.076C966.86,321.6,966.861,321.635,966.862,321.669Zm18.16,3.159,0.066,0h0.072a3.532,3.532,0,0,1,1.7.436,3.244,3.244,0,0,1,1.366,4.349c-0.013.024-.024,0.048-0.035,0.072a3.427,3.427,0,1,1-5.958-3.341,1.4,1.4,0,0,0,.144-0.274,3.375,3.375,0,0,0-.07-2.642A3.488,3.488,0,0,0,985.022,324.828Zm-0.08-13.625a3.388,3.388,0,0,1,2.762,1.409c0.01,0.014.02,0.027,0.031,0.04a3.39,3.39,0,0,1,.227.326,3.208,3.208,0,0,1-.369,3.843l-0.033.039a3.406,3.406,0,0,1-2.958,1.208,1.4,1.4,0,0,0-.578.061,3.471,3.471,0,0,0-1.738,1.245,3.368,3.368,0,0,0,.1-2.287,1.421,1.421,0,0,0-.21-0.419A3.443,3.443,0,0,1,984.942,311.2Zm-4.112,9.831a3.457,3.457,0,0,0,1.052-.94,3.411,3.411,0,0,0,.045,2.7,3.417,3.417,0,0,0-1.086-.945,3.451,3.451,0,0,0-1.165-.391A3.511,3.511,0,0,0,980.83,321.034Zm-11.107.483a3.242,3.242,0,0,1,.134-0.908,3.442,3.442,0,0,1,3.288-2.484,3.405,3.405,0,0,1,2.909,1.627c0,0.008.013,0.021,0.018,0.029l0.059,0.094a1.17,1.17,0,0,0,.086.13,3.45,3.45,0,0,0,2.346,1.467,3.449,3.449,0,0,0-2.152,1.283,1.448,1.448,0,0,0-.166.271,3.419,3.419,0,0,1-6.521-1.39v-0.119Z" transform="translate(-883 -301)"/>
</svg>
