<?xml version="1.0" encoding="utf-8"?>
<!-- Generator: Adobe Illustrator 16.2.0, SVG Export Plug-In . SVG Version: 6.00 Build 0)  -->
<!DOCTYPE svg PUBLIC "-//W3C//DTD SVG 1.1//EN" "http://www.w3.org/Graphics/SVG/1.1/DTD/svg11.dtd">
<svg version="1.1" id="Слой_1" xmlns="http://www.w3.org/2000/svg" xmlns:xlink="http://www.w3.org/1999/xlink" x="0px" y="0px"
	 width="17px" height="20px" viewBox="0 0 17 20" enable-background="new 0 0 17 20" xml:space="preserve">
<path id="doc-s.svg" fill="#0166E8" d="M3.935,6.69h4.15c0.605-0.057,1.05-0.593,0.993-1.197C9.028,4.965,8.611,4.548,8.085,4.5
	h-4.15C3.33,4.556,2.886,5.092,2.942,5.697C2.992,6.224,3.409,6.641,3.935,6.69z M3.935,11.471h8.715
	c0.604-0.057,1.049-0.594,0.992-1.198c-0.049-0.527-0.466-0.944-0.992-0.993H3.935c-0.604,0.06-1.046,0.598-0.987,1.202
	c0.051,0.522,0.465,0.936,0.987,0.987V11.471z M13.064,13.641H3.935c-0.597,0.023-1.06,0.527-1.036,1.125
	c0.023,0.561,0.474,1.012,1.036,1.035h9.129c0.598-0.018,1.067-0.516,1.051-1.111c-0.017-0.574-0.477-1.033-1.051-1.051V13.641z
	 M12.844,0H2.32C1.006,0.032-0.032,1.123,0,2.436C0,2.437,0,2.439,0,2.44v15.121C-0.031,18.873,1.006,19.965,2.32,20h12.36
	c1.314-0.035,2.352-1.127,2.32-2.439V4.46L12.844,0z M14.68,18.25H2.32c-0.375-0.008-0.676-0.314-0.674-0.691V2.439
	C1.638,2.056,1.938,1.737,2.32,1.719h9.718v1.96c-0.017,0.842,0.646,1.541,1.487,1.57l1.828,0.02v12.29
	C15.356,17.936,15.056,18.242,14.68,18.25z"/>
</svg>
