<svg xmlns="http://www.w3.org/2000/svg" width="16" height="16" viewBox="0 0 16 16">
<defs>
    <style>
      .cls-1 {
        fill: #fff;
        fill-rule: evenodd;
      }
    </style>
  </defs>
  <path id="Фигура_2" data-name="Фигура 2" class="cls-1" d="M299.273,225h-5.818a0.727,0.727,0,1,0,0,1.454h4.062l-7.486,7.486a0.728,0.728,0,0,0,1.029,1.029l7.485-7.486v4.062a0.728,0.728,0,1,0,1.455,0v-5.818A0.728,0.728,0,0,0,299.273,225Zm-2.909,7.273a0.727,0.727,0,0,0-.728.727v6.545H285.455V229.364H292a0.728,0.728,0,0,0,0-1.455h-7.273a0.728,0.728,0,0,0-.727.727v11.637a0.728,0.728,0,0,0,.727.727h11.637a0.728,0.728,0,0,0,.727-0.727V233A0.727,0.727,0,0,0,296.364,232.273Z" transform="translate(-284 -225)"/>
</svg>
