<svg xmlns="http://www.w3.org/2000/svg" width="20" height="18" viewBox="0 0 20 18">
  <defs>
    <style>
      .cls-1 {
        fill: #fff;
        fill-rule: evenodd;
      }
    </style>
  </defs>
  <path id="linkedin.svg" class="cls-1" d="M810,992.036V999h-4.287v-6.5c0-1.632-.62-2.746-2.171-2.746a2.336,2.336,0,0,0-2.2,1.477,2.616,2.616,0,0,0-.142.984V999h-4.288s0.058-11,0-12.145H801.2v1.721l-0.029.039H801.2v-0.039a4.3,4.3,0,0,1,3.864-2.007C807.885,986.569,810,988.305,810,992.036ZM792.426,981a2.118,2.118,0,1,0-.056,4.2H792.4A2.119,2.119,0,1,0,792.426,981Zm-2.171,18h4.286V986.855h-4.286V999Z" transform="translate(-790 -981)"/>
</svg>
