<svg xmlns="http://www.w3.org/2000/svg" width="30" height="30" viewBox="0 0 30 30">
  <defs>
    <style>
      .cls-1 {
        fill: #fff;
        fill-rule: evenodd;
      }
    </style>
  </defs>
  <path id="login3.svg" class="cls-1" d="M292.949,26h-19.9A5.062,5.062,0,0,0,268,31.063V41a1.107,1.107,0,0,0,1.1,1.1h16.962l-2.434,2.434a1.106,1.106,0,0,0,.779,1.888,1.1,1.1,0,0,0,.778-0.325l4.316-4.315a1.11,1.11,0,0,0,0-1.563l-4.316-4.315a1.105,1.105,0,0,0-1.563,1.563l2.44,2.427H270.207V31.063a2.853,2.853,0,0,1,2.844-2.857h19.9a2.853,2.853,0,0,1,2.844,2.857V50.937a2.853,2.853,0,0,1-2.844,2.857h-19.9a2.853,2.853,0,0,1-2.844-2.857V48.362a1.1,1.1,0,0,0-2.207,0v2.575A5.066,5.066,0,0,0,273.051,56h19.9A5.062,5.062,0,0,0,298,50.937V31.063A5.066,5.066,0,0,0,292.949,26Z" transform="translate(-268 -26)"/>
</svg>
