<svg xmlns="http://www.w3.org/2000/svg" width="18" height="18" viewBox="0 0 18 18">
  <defs>
    <style>
      .cls-1 {
        fill: #b5b5b5;
        fill-rule: evenodd;
      }
    </style>
  </defs>
  <path id="pen.svg" class="cls-1" d="M890.489,1171.14l-0.273,2.64,3.639-.37,0.64-.64h0l8.859-8.86,0.813,0.81-8.6,8.6-1.043,1.04-0.347.17-4.546.47-0.631-.63,0.471-4.55,0.977-.34,3.067,3.06-0.812.82ZM907,1160.86a2.463,2.463,0,0,0-.728-1.76l-1.374-1.37a2.479,2.479,0,0,0-3.514,0l-1.189,1.19h0l-9.776,9.77,0.813,0.82,9.636-9.64h0l1.329-1.33a1.339,1.339,0,0,1,1.889,0l1.374,1.37a1.349,1.349,0,0,1,.391.95,1.305,1.305,0,0,1-.392.94l-0.922.93-2.433-2.44-0.812.82,3.245,3.24,1.735-1.73A2.485,2.485,0,0,0,907,1160.86Z" transform="translate(-889 -1157)"/>
</svg>
